<svg width="31" height="24" viewBox="0 0 31 24" fill="none" xmlns="http://www.w3.org/2000/svg">
<path d="M29.4545 0H1.09091C0.4875 0 0 0.4875 0 1.09091V22.9091C0 23.5125 0.4875 24 1.09091 24H29.4545C30.058 24 30.5455 23.5125 30.5455 22.9091V1.09091C30.5455 0.4875 30.058 0 29.4545 0ZM26.7 3.7125L15.9443 12.0818C15.6784 12.2898 15.3068 12.2898 15.0409 12.0818L4.28182 3.7125C4.24126 3.6812 4.21151 3.63799 4.19674 3.58894C4.18198 3.53988 4.18293 3.48743 4.19947 3.43894C4.21601 3.39045 4.2473 3.34836 4.28897 3.31855C4.33064 3.28874 4.38059 3.27272 4.43182 3.27273H26.55C26.6012 3.27272 26.6512 3.28874 26.6929 3.31855C26.7345 3.34836 26.7658 3.39045 26.7824 3.43894C26.7989 3.48743 26.7998 3.53988 26.7851 3.58894C26.7703 3.63799 26.7406 3.6812 26.7 3.7125Z" fill="#414E83"/>
</svg>
