<svg width="24" height="24" viewBox="0 0 24 24" fill="none" xmlns="http://www.w3.org/2000/svg">
<path d="M20.2078 22.8816L23.3068 19.7796C23.5266 19.5608 23.7009 19.3007 23.8199 19.0143C23.9389 18.7279 24.0001 18.4208 24 18.1107C24 17.4786 23.7524 16.8845 23.3068 16.4388L19.9689 13.101C19.7501 12.8812 19.49 12.7068 19.2036 12.5879C18.9172 12.4689 18.6101 12.4077 18.3 12.4078C17.668 12.4078 17.0738 12.6553 16.6282 13.101L14.1874 15.5417C12.9281 14.9704 11.7825 14.1761 10.8058 13.1971C9.82445 12.2205 9.02723 11.075 8.45243 9.81553L10.8932 7.37476C11.113 7.15594 11.2874 6.89586 11.4063 6.60946C11.5253 6.32305 11.5865 6.01596 11.5864 5.70583C11.5864 5.07379 11.3388 4.47961 10.8932 4.03398L7.55825 0.693205C7.33903 0.473159 7.07847 0.298631 6.79155 0.179664C6.50463 0.060697 6.19701 -0.000361707 5.88641 8.1319e-07C5.25437 7.85563e-07 4.66019 0.247574 4.21456 0.693205L1.11845 3.78932C0.404854 4.5 -2.39606e-07 5.48155 -2.83657e-07 6.48932C-2.92951e-07 6.70194 0.0174755 6.90583 0.052427 7.1068C0.699029 11.033 2.78738 14.9272 5.92718 18.0699C9.06408 21.2097 12.9553 23.2951 16.8932 23.9505C18.0961 24.1485 19.334 23.7495 20.2078 22.8816Z" fill="#414E83"/>
</svg>
