<svg width="187" height="44" viewBox="0 0 187 44" fill="none" xmlns="http://www.w3.org/2000/svg">
<path d="M2.24002 23V6.319H5.33792V23H2.24002ZM16.7843 10.1318C17.8011 10.1318 18.7066 10.3304 19.5009 10.7275C20.3112 11.1247 20.9466 11.7364 21.4073 12.5625C21.8681 13.3727 22.0984 14.4212 22.0984 15.708V23H19.1197V16.0893C19.1197 14.9613 18.8496 14.1194 18.3094 13.5633C17.7852 13.0073 17.0465 12.7293 16.0933 12.7293C15.3942 12.7293 14.7747 12.8722 14.2345 13.1582C13.6944 13.4442 13.2734 13.8731 12.9715 14.445C12.6856 15.0011 12.5426 15.708 12.5426 16.5659V23H9.56384V10.2748H12.3996V13.7063L11.8992 12.6578C12.344 11.8476 12.9874 11.228 13.8294 10.799C14.6873 10.3542 15.6723 10.1318 16.7843 10.1318ZM26.2823 23V9.55988C26.2823 8.2254 26.6715 7.16099 27.4499 6.36666C28.2443 5.55644 29.3722 5.15133 30.8338 5.15133C31.358 5.15133 31.8505 5.20693 32.3112 5.31814C32.7878 5.42935 33.185 5.6041 33.5027 5.8424L32.6925 8.08242C32.4701 7.90767 32.2159 7.78057 31.93 7.70114C31.644 7.60582 31.3501 7.55816 31.0483 7.55816C30.4287 7.55816 29.96 7.73291 29.6423 8.08242C29.3246 8.41604 29.1657 8.92441 29.1657 9.60754V11.0373L29.261 12.3718V23H26.2823ZM24.1852 12.7531V10.3701H32.6687V12.7531H24.1852ZM34.7657 23V10.2748H37.7445V23H34.7657ZM36.267 8.17774C35.711 8.17774 35.2503 8.00299 34.8849 7.65348C34.5354 7.30397 34.3606 6.88298 34.3606 6.39049C34.3606 5.88212 34.5354 5.46112 34.8849 5.1275C35.2503 4.77799 35.711 4.60324 36.267 4.60324C36.8231 4.60324 37.2758 4.77005 37.6253 5.10367C37.9907 5.4214 38.1734 5.82651 38.1734 6.319C38.1734 6.84326 37.9987 7.28809 37.6492 7.65348C37.2997 8.00299 36.8389 8.17774 36.267 8.17774ZM48.8757 10.1318C49.8925 10.1318 50.798 10.3304 51.5923 10.7275C52.4025 11.1247 53.038 11.7364 53.4987 12.5625C53.9594 13.3727 54.1898 14.4212 54.1898 15.708V23H51.211V16.0893C51.211 14.9613 50.941 14.1194 50.4008 13.5633C49.8766 13.0073 49.1378 12.7293 48.1846 12.7293C47.4856 12.7293 46.866 12.8722 46.3259 13.1582C45.7857 13.4442 45.3647 13.8731 45.0629 14.445C44.7769 15.0011 44.634 15.708 44.634 16.5659V23H41.6552V10.2748H44.491V13.7063L43.9906 12.6578C44.4354 11.8476 45.0788 11.228 45.9208 10.799C46.7787 10.3542 47.7636 10.1318 48.8757 10.1318ZM57.9685 23V10.2748H60.9473V23H57.9685ZM59.4698 8.17774C58.9138 8.17774 58.4531 8.00299 58.0877 7.65348C57.7382 7.30397 57.5634 6.88298 57.5634 6.39049C57.5634 5.88212 57.7382 5.46112 58.0877 5.1275C58.4531 4.77799 58.9138 4.60324 59.4698 4.60324C60.0258 4.60324 60.4786 4.77005 60.8281 5.10367C61.1935 5.4214 61.3762 5.82651 61.3762 6.319C61.3762 6.84326 61.2015 7.28809 60.852 7.65348C60.5024 8.00299 60.0417 8.17774 59.4698 8.17774ZM69.6467 23.1668C68.2487 23.1668 67.1684 22.8094 66.4058 22.0945C65.6433 21.3637 65.262 20.2913 65.262 18.8774V7.46284H68.2407V18.8059C68.2407 19.4096 68.3917 19.8783 68.6935 20.2119C69.0112 20.5455 69.4481 20.7123 70.0042 20.7123C70.6714 20.7123 71.2274 20.5376 71.6723 20.1881L72.5063 22.3089C72.1568 22.5949 71.7279 22.8094 71.2195 22.9523C70.7111 23.0953 70.1869 23.1668 69.6467 23.1668ZM63.165 12.7531V10.3701H71.6484V12.7531H63.165ZM80.5192 23.1668C79.1052 23.1668 77.8661 22.8888 76.8017 22.3328C75.7532 21.7608 74.935 20.9824 74.3472 19.9974C73.7753 19.0124 73.4893 17.8924 73.4893 16.6374C73.4893 15.3665 73.7673 14.2464 74.3234 13.2774C74.8953 12.2924 75.6737 11.5219 76.6587 10.9659C77.6596 10.4098 78.7955 10.1318 80.0664 10.1318C81.3055 10.1318 82.4097 10.4019 83.3788 10.942C84.3478 11.4822 85.1104 12.2447 85.6664 13.2297C86.2225 14.2147 86.5005 15.3744 86.5005 16.7089C86.5005 16.836 86.4925 16.979 86.4767 17.1378C86.4767 17.2967 86.4687 17.4476 86.4528 17.5906H75.8485V15.6127H84.88L83.7124 16.2323C83.7283 15.5015 83.5773 14.8581 83.2596 14.302C82.9419 13.746 82.505 13.3091 81.949 12.9914C81.4088 12.6737 80.7813 12.5148 80.0664 12.5148C79.3356 12.5148 78.6922 12.6737 78.1362 12.9914C77.596 13.3091 77.1671 13.754 76.8493 14.3259C76.5475 14.8819 76.3966 15.5412 76.3966 16.3038V16.7804C76.3966 17.5429 76.5713 18.2181 76.9208 18.8059C77.2703 19.3937 77.7628 19.8465 78.3983 20.1642C79.0338 20.482 79.7645 20.6408 80.5906 20.6408C81.3055 20.6408 81.949 20.5296 82.5209 20.3072C83.0928 20.0848 83.6012 19.7353 84.046 19.2587L85.6426 21.0936C85.0707 21.7608 84.3478 22.2772 83.4741 22.6425C82.6162 22.9921 81.6312 23.1668 80.5192 23.1668Z" fill="#1F9959"/>
<path d="M102.702 23.131C101.567 23.131 100.475 22.9491 99.4273 22.5852C98.394 22.2068 97.5936 21.7266 97.026 21.1444L97.6591 19.9001C98.1976 20.4241 98.9179 20.8679 99.8203 21.2318C100.737 21.581 101.698 21.7557 102.702 21.7557C103.662 21.7557 104.441 21.6393 105.038 21.4064C105.649 21.159 106.093 20.8316 106.369 20.4241C106.66 20.0166 106.806 19.5654 106.806 19.0706C106.806 18.4739 106.631 17.9937 106.282 17.6298C105.947 17.266 105.503 16.9822 104.95 16.7784C104.397 16.5601 103.786 16.371 103.117 16.2109C102.447 16.0508 101.778 15.8834 101.108 15.7088C100.439 15.5196 99.8203 15.2722 99.2527 14.9666C98.6996 14.6609 98.2485 14.2607 97.8992 13.7659C97.5645 13.2565 97.3971 12.5944 97.3971 11.7794C97.3971 11.0226 97.5936 10.3313 97.9865 9.70553C98.394 9.06518 99.0125 8.55582 99.8421 8.17743C100.672 7.78449 101.734 7.58802 103.029 7.58802C103.888 7.58802 104.739 7.71172 105.583 7.95913C106.427 8.19198 107.155 8.51943 107.766 8.94148L107.221 10.2294C106.566 9.79285 105.867 9.47268 105.125 9.26893C104.397 9.06518 103.691 8.96331 103.007 8.96331C102.091 8.96331 101.334 9.08701 100.737 9.33442C100.14 9.58183 99.6965 9.91655 99.4055 10.3386C99.129 10.7461 98.9907 11.2118 98.9907 11.7357C98.9907 12.3324 99.1581 12.8127 99.4928 13.1765C99.8421 13.5403 100.293 13.8241 100.846 14.0279C101.414 14.2316 102.032 14.4135 102.702 14.5736C103.371 14.7337 104.033 14.9083 104.688 15.0975C105.358 15.2867 105.969 15.5341 106.522 15.8398C107.09 16.1308 107.541 16.5238 107.876 17.0186C108.225 17.5134 108.399 18.161 108.399 18.9614C108.399 19.7037 108.196 20.395 107.788 21.0353C107.381 21.6611 106.755 22.1705 105.911 22.5634C105.081 22.9418 104.012 23.131 102.702 23.131ZM116.263 23.1092C115.157 23.1092 114.16 22.8617 113.273 22.3669C112.399 21.8576 111.708 21.1663 111.199 20.2931C110.689 19.4053 110.435 18.3939 110.435 17.2587C110.435 16.109 110.689 15.0975 111.199 14.2243C111.708 13.3511 112.399 12.6671 113.273 12.1723C114.146 11.6775 115.143 11.4301 116.263 11.4301C117.399 11.4301 118.403 11.6775 119.276 12.1723C120.164 12.6671 120.855 13.3511 121.35 14.2243C121.859 15.0975 122.114 16.109 122.114 17.2587C122.114 18.3939 121.859 19.4053 121.35 20.2931C120.855 21.1663 120.164 21.8576 119.276 22.3669C118.388 22.8617 117.384 23.1092 116.263 23.1092ZM116.263 21.7339C117.093 21.7339 117.828 21.5519 118.468 21.1881C119.109 20.8097 119.611 20.2858 119.974 19.6163C120.353 18.9323 120.542 18.1465 120.542 17.2587C120.542 16.3564 120.353 15.5705 119.974 14.9011C119.611 14.2316 119.109 13.715 118.468 13.3511C117.828 12.9728 117.1 12.7836 116.285 12.7836C115.47 12.7836 114.743 12.9728 114.102 13.3511C113.462 13.715 112.952 14.2316 112.574 14.9011C112.196 15.5705 112.007 16.3564 112.007 17.2587C112.007 18.1465 112.196 18.9323 112.574 19.6163C112.952 20.2858 113.462 20.8097 114.102 21.1881C114.743 21.5519 115.463 21.7339 116.263 21.7339ZM125.278 23V6.80214H126.828V23H125.278ZM135.878 23.1092C134.903 23.1092 134.051 22.9272 133.324 22.5634C132.596 22.1996 132.028 21.6538 131.621 20.9261C131.228 20.1985 131.032 19.2889 131.032 18.1974V11.5392H132.581V18.0228C132.581 19.2452 132.88 20.1694 133.476 20.7952C134.088 21.4064 134.939 21.712 136.031 21.712C136.831 21.712 137.522 21.5519 138.104 21.2318C138.701 20.897 139.152 20.4168 139.458 19.791C139.778 19.1652 139.938 18.4157 139.938 17.5425V11.5392H141.488V23H140.004V19.8565L140.244 20.4241C139.88 21.2682 139.312 21.9303 138.541 22.4106C137.784 22.8763 136.897 23.1092 135.878 23.1092ZM149.431 23.1092C148.355 23.1092 147.525 22.8181 146.943 22.2359C146.361 21.6538 146.07 20.8316 146.07 19.7692V9.00697H147.62V19.6818C147.62 20.3513 147.787 20.8679 148.122 21.2318C148.471 21.5956 148.966 21.7775 149.606 21.7775C150.29 21.7775 150.858 21.581 151.309 21.1881L151.855 22.3014C151.549 22.578 151.178 22.7817 150.741 22.9127C150.319 23.0437 149.883 23.1092 149.431 23.1092ZM144.018 12.8272V11.5392H151.112V12.8272H144.018ZM154.676 23V11.5392H156.226V23H154.676ZM155.462 9.00697C155.142 9.00697 154.873 8.89782 154.654 8.67952C154.436 8.46122 154.327 8.19926 154.327 7.89364C154.327 7.58802 154.436 7.33334 154.654 7.12959C154.873 6.91129 155.142 6.80214 155.462 6.80214C155.782 6.80214 156.051 6.90401 156.27 7.10776C156.488 7.31151 156.597 7.56619 156.597 7.87181C156.597 8.19198 156.488 8.46122 156.27 8.67952C156.066 8.89782 155.797 9.00697 155.462 9.00697ZM165.21 23.1092C164.104 23.1092 163.107 22.8617 162.22 22.3669C161.346 21.8576 160.655 21.1663 160.146 20.2931C159.636 19.4053 159.382 18.3939 159.382 17.2587C159.382 16.109 159.636 15.0975 160.146 14.2243C160.655 13.3511 161.346 12.6671 162.22 12.1723C163.093 11.6775 164.09 11.4301 165.21 11.4301C166.345 11.4301 167.35 11.6775 168.223 12.1723C169.111 12.6671 169.802 13.3511 170.297 14.2243C170.806 15.0975 171.061 16.109 171.061 17.2587C171.061 18.3939 170.806 19.4053 170.297 20.2931C169.802 21.1663 169.111 21.8576 168.223 22.3669C167.335 22.8617 166.331 23.1092 165.21 23.1092ZM165.21 21.7339C166.04 21.7339 166.775 21.5519 167.415 21.1881C168.055 20.8097 168.558 20.2858 168.921 19.6163C169.3 18.9323 169.489 18.1465 169.489 17.2587C169.489 16.3564 169.3 15.5705 168.921 14.9011C168.558 14.2316 168.055 13.715 167.415 13.3511C166.775 12.9728 166.047 12.7836 165.232 12.7836C164.417 12.7836 163.689 12.9728 163.049 13.3511C162.409 13.715 161.899 14.2316 161.521 14.9011C161.143 15.5705 160.953 16.3564 160.953 17.2587C160.953 18.1465 161.143 18.9323 161.521 19.6163C161.899 20.2858 162.409 20.8097 163.049 21.1881C163.689 21.5519 164.41 21.7339 165.21 21.7339ZM180.076 11.4301C181.007 11.4301 181.822 11.612 182.52 11.9759C183.234 12.3251 183.787 12.8636 184.18 13.5913C184.587 14.3189 184.791 15.2358 184.791 16.3418V23H183.241V16.4947C183.241 15.2867 182.935 14.3771 182.324 13.7659C181.727 13.1401 180.883 12.8272 179.792 12.8272C178.977 12.8272 178.264 12.9946 177.652 13.3293C177.056 13.6495 176.59 14.1225 176.255 14.7483C175.935 15.3595 175.775 16.1017 175.775 16.9749V23H174.225V11.5392H175.71V14.6828L175.469 14.0934C175.833 13.2638 176.415 12.6162 177.216 12.1505C178.016 11.6702 178.969 11.4301 180.076 11.4301Z" fill="#273672"/>
</svg>
