<svg width="110" height="60" viewBox="0 0 110 60" fill="none" xmlns="http://www.w3.org/2000/svg">
<path d="M92.3143 29.1294C91.9423 28.1454 91.587 27.1538 91.1945 26.1773C89.3794 21.6506 85.8825 19.4819 80.9618 19.3262C77.0173 19.2017 73.4769 20.2306 70.3148 22.9249C71.3026 22.7119 72.0876 22.4341 72.8881 22.388C77.1636 22.1389 80.89 25.6666 80.9195 29.9254C80.949 34.1842 77.2367 37.8053 72.9753 37.5176C71.7624 37.4251 70.599 37.0111 69.6119 36.3205C67.6351 34.8818 65.8508 33.1927 64.0036 31.5871L62.7786 30.5196L55.4668 38.6162C59.7641 43.0893 64.0524 47.3183 70.5855 48.3609C80.9233 50.0151 91.1162 42.8103 92.4875 32.7368C92.6491 31.5497 92.3592 30.3053 92.2861 29.0883L92.3143 29.1294Z" fill="#1D9A57"/>
<path d="M17.543 27.1151C18.6975 20.0212 24.1095 13.9487 31.3828 12.008C39.1358 9.94022 47.6367 12.8276 54.5072 20.6029L47.2891 29.1978C46.0961 28.1614 45.0391 27.2048 43.9398 26.2992C42.8405 25.3936 41.786 24.3784 40.543 23.7021C39.3616 23.0605 37.9775 22.4714 36.6575 22.4278C32.9875 22.3032 29.7742 25.1682 29.1572 28.7917C28.5491 32.3655 30.8248 35.999 34.4165 37.1923C34.8116 37.3231 35.2131 37.4415 35.7288 37.5947C27.9847 40.0262 20.891 36.8585 17.8329 29.7148C17.7636 29.2613 17.6918 28.8428 17.6469 28.3894C17.593 27.9684 17.5648 27.5399 17.543 27.1151Z" fill="#1D9A57"/>
<path d="M27.5251 46.4525C21.4537 43.3609 16.4188 36.2919 17.4451 27.8302C17.4733 27.596 17.5066 27.3619 17.5438 27.1302C17.5438 27.5537 17.5772 27.976 17.6182 28.3982C17.6734 28.8529 17.7388 29.2702 17.835 29.7199C17.8029 32.8888 20.3415 36.3952 23.8846 37.7194C31.4785 40.5557 38.3247 39.3848 43.9766 33.5664L44.0112 33.5303C44.4391 33.0854 44.9591 32.7335 45.5369 32.4975C46.1148 32.2615 46.7375 32.1468 47.3642 32.1609C47.9909 32.175 48.6075 32.3176 49.1735 32.5794C49.7394 32.8411 50.242 33.2161 50.6483 33.6797C51.7762 34.9731 52.3497 36.6377 52.2504 38.3298C52.1511 40.0219 51.3866 41.6124 50.1146 42.7729C49.6665 43.1823 49.2124 43.5855 48.7523 43.9824C42.5771 49.3063 34.4674 49.9877 27.5251 46.4525Z" fill="url(#paint0_linear_83_321)"/>
<path d="M82.1195 18.5203C77.4208 17.9959 73.1607 19.1132 69.7896 22.3992C68.9391 23.2276 68.1066 24.0746 67.2856 24.9316C66.7362 25.5062 66.0668 25.9602 65.3221 26.2634C64.5775 26.5666 63.7748 26.712 62.9677 26.6898C62.1606 26.6676 61.3676 26.4784 60.6419 26.1349C59.9161 25.7913 59.2742 25.3012 58.759 24.6974C57.8231 23.6029 57.3602 22.199 57.4673 20.7802C57.5745 19.3614 58.2434 18.038 59.3337 17.0878C59.8314 16.6568 60.3377 16.2366 60.8525 15.8272C64.579 12.8776 68.966 11.3006 73.8842 11.3591C83.732 11.4837 92.0995 19.1618 92.6896 28.6934C92.6973 28.8093 92.4535 28.9426 92.3047 29.0671C91.807 23.3372 87.8138 19.1618 82.1195 18.5203Z" fill="#273672"/>
<path d="M55.8312 24.6477C58.3462 24.6477 60.385 26.6275 60.385 29.0697C60.385 31.5119 58.3462 33.4917 55.8312 33.4917C53.3162 33.4917 51.2773 31.5119 51.2773 29.0697C51.2773 26.6275 53.3162 24.6477 55.8312 24.6477Z" fill="#273672"/>
<defs>
<linearGradient id="paint0_linear_83_321" x1="52.2568" y1="37.8875" x2="17.3091" y2="37.8875" gradientUnits="userSpaceOnUse">
<stop stop-color="#273672"/>
<stop offset="0.13" stop-color="#254B6D"/>
<stop offset="0.37" stop-color="#236D64"/>
<stop offset="0.61" stop-color="#21855E"/>
<stop offset="0.82" stop-color="#1F945A"/>
<stop offset="1" stop-color="#1F9959"/>
</linearGradient>
</defs>
</svg>
