<svg id="Calque_1" data-name="Calque 1" xmlns="http://www.w3.org/2000/svg" viewBox="0 0 617.74 408.06"><defs><style>.cls-1,.cls-7{font-size:80px;font-family:Neometric-AltMedium, Neometric;font-weight:500;}.cls-1,.cls-12{fill:#273672;}.cls-2{letter-spacing:-0.02em;}.cls-3{letter-spacing:0em;}.cls-4{letter-spacing:-0.01em;}.cls-5{letter-spacing:-0.04em;}.cls-6{letter-spacing:-0.02em;}.cls-11,.cls-7{fill:#1d9a57;}.cls-8{letter-spacing:0em;}.cls-9{letter-spacing:-0.01em;}.cls-10{letter-spacing:-0.05em;}</style></defs><title>LOGO</title><text class="cls-1" transform="translate(10.19 97.94)">I<tspan class="cls-2" x="22.15" y="0">n</tspan><tspan class="cls-3" x="72.15" y="0">fi</tspan><tspan x="129.57" y="0">n</tspan><tspan class="cls-4" x="181.13" y="0">i</tspan><tspan class="cls-5" x="199.1" y="0">t</tspan><tspan class="cls-6" x="232.73" y="0">e</tspan></text><text class="cls-7" transform="translate(140.22 379.24)"><tspan class="cls-8">S</tspan><tspan class="cls-9" x="51.02" y="0">O</tspan><tspan class="cls-10" x="117.27" y="0">L</tspan><tspan x="159.57" y="0">UT</tspan><tspan class="cls-9" x="263.44" y="0">IO</tspan><tspan x="351.09" y="0">NS</tspan></text><path class="cls-11" d="M334,211.5l38.55-35c10.61,9.34,20.9,18.35,31.13,27.44,14.37,12.77,29.74,23.37,49.19,27.35,45.23,9.27,88.42-20.16,95.59-65.67,8.15-51.75-31.25-96.78-83.6-94.79-9.19.34-18.23,3.95-27.41,5.73-2.05.4-5.27.28-6.43-1-10.45-11.49-20.56-23.28-31.3-35.6,17.23-9.82,34.42-17.89,53.64-19.39,49.06-3.83,89.18,14.64,120.87,51.44,15.51,18,23.41,40,25.57,63.47,2.84,30.83-2,60.22-18.68,87.12C570.44,239.87,555.85,253,538.76,263c-21.12,12.44-43.81,20.48-68.84,21.21a117.1,117.1,0,0,1-72.43-21.84C375.73,247,355.73,229.09,334,211.5Z"/><path class="cls-12" d="M249.33,169.62,333.08,95.1l34.08,38.73-83.79,74.5Z"/><path class="cls-12" d="M348,81.07l33.71-29.24,34.25,38.91-33.29,29.4Z"/><path class="cls-11" d="M215.73,200.11c-9.54,7.82-18.38,17-29,22.88-48.29,26.58-105.85.49-118.77-53.09a77,77,0,0,1-2.12-17.7H14.54a112.54,112.54,0,0,0,2.31,23.37c15.28,73.88,87,121.19,160.67,104.68,37.07-8.3,62.67-33.65,89.57-58.46L234,184.38C227.51,190,221.74,195.19,215.73,200.11Z"/></svg>